<svg xmlns="http://www.w3.org/2000/svg" width="80" height="80" viewBox="0 0 100 100" fill="none">
  <!-- 碗身 -->
  <rect x="5" y="5" width="90" height="90" rx="24" fill="#4A5D23"/>
  <!-- 碗内波浪线 -->
  <path d="M20 55C24 49 30 49 34 55C38 61 44 61 48 55C52 49 58 49 62 55C66 61 72 61 76 55C80 49 84 49 84 55" stroke="#fff" stroke-width="3.5" stroke-linecap="round"/>
  <path d="M18 68C22 62 28 62 32 68C36 74 42 74 46 68C50 62 56 62 60 68C64 74 70 74 74 68C78 62 82 62 82 68" stroke="#fff" stroke-width="3.5" stroke-linecap="round"/>
  <path d="M22 80C26 74 32 74 36 80C40 86 46 86 50 80C54 74 60 74 64 80C68 86 74 86 78 80C82 74 82 74 82 80" stroke="#fff" stroke-width="3.5" stroke-linecap="round"/>
</svg>
