<svg xmlns="http://www.w3.org/2000/svg" width="1024" height="1024" viewBox="0 0 1024 1024" fill="none">
  <rect width="1024" height="1024" rx="224" fill="#F7F3E6"/>
  <rect x="44" y="44" width="936" height="936" rx="188" fill="none" stroke="#E3D8B3" stroke-width="24"/>
  <g transform="translate(112 260) scale(8)" fill="none">
    <path d="M10 50C10 50 10 10 50 10C90 10 90 50 90 50" stroke="#4A5D23" stroke-width="2" stroke-linecap="round" stroke-linejoin="round"/>
    <path d="M10 50C12 47 15 47 17 50C19 53 22 53 24 50C26 47 29 47 31 50C33 53 36 53 38 50C40 47 43 47 45 50C47 53 50 53 52 50C54 47 57 47 59 50C61 53 64 53 66 50C68 47 71 47 73 50C75 53 78 53 80 50C82 47 85 47 87 50C89 53 90 53 90 50" stroke="#4A5D23" stroke-width="2" stroke-linecap="round"/>
  </g>
</svg>
